# xmcd
#
# Track frame offsets:
#	150
#	12112
#	24895
#	37095
#	49775
#	63260
#	73757
#	84103
#	96750
#	108628
#	119295
#	133317
#	145748
#	158292
#	168619
#	180473
#	192073
#	201905
#	212840
#	225019
#	236550
#	247181
#	259599
#	271293
#	285349
#	298100
#	312087
#
# Disc length: 4361 seconds
#
# Revision: 0
# Processed by: cddbd v1.5.2PL0 Copyright (c) Steve Scherf et al.
# Submitted via: dBpowerAMP V4.0
#
DISCID=7511071b
DTITLE=Little Walter and The Kings Of The Blues Harmonica - Just Whaling
DYEAR=2008
DGENRE=Blues
TTITLE0=Track01Dr Ross - Doctor Ross Boogie
TTITLE1=Dr Ross - Come Back Baby
TTITLE2=Willie Nix - Baker Shop Boogie
TTITLE3=Muddy Waters - I Live The Life I Love
TTITLE4=Jimmy and Walter - Easy
TTITLE5=Walter Horton - Have A Good Time
TTITLE6=Walter Horton - Need My Baby
TTITLE7=Jimmy Rogers - Walkin' By Myself
TTITLE8=Howlin' Wolf - Stay Here Till My Baby Comes Back
TTITLE9=Howlin' Wolf - Crazy About You Baby
TTITLE10=Henry Gray - I Declare That Ain't Right
TTITLE11=Jimmy Reed - Jimmie's Boogie
TTITLE12=Jimmy Reed - Roll and Rhumba
TTITLE13=J.B.Hutto - Combination Boogie
TTITLE14=Coy "Hot Shot" Love - Wolf Call Boogie
TTITLE15=Coy "Hot Shot" Love - Harmonica Jam
TTITLE16=Sammy Lewis/Willie Johnson - So Long Baby, Goodbye
TTITLE17=Billy Boy Arnold - You Got To Love Me
TTITLE18=Billy Boy Arnold - I Wish You Would
TTITLE19=Sonny Boy Williamson - Don't Start Me Talkin'
TTITLE20=Sonny Boy Williamson - Fattening Frogs For Snakes
TTITLE21=Louis Myers - Just Whaling
TTITLE22=Little Willie Foster - Little Girl
TTITLE23=Slim Harpo - I'm A King Bee
TTITLE24=Slim Harpo - I Got Love If You Want It
TTITLE25=Junior Wells - Hoodoo Man
TTITLE26=Junior Wells - So All Alone
EXTD=
EXTT0=
EXTT1=
EXTT2=
EXTT3=
EXTT4=
EXTT5=
EXTT6=
EXTT7=
EXTT8=
EXTT9=
EXTT10=
EXTT11=
EXTT12=
EXTT13=
EXTT14=
EXTT15=
EXTT16=
EXTT17=
EXTT18=
EXTT19=
EXTT20=
EXTT21=
EXTT22=
EXTT23=
EXTT24=
EXTT25=
EXTT26=
PLAYORDER=
